<?xml version="1.0" standalone="no"?>
<!DOCTYPE svg PUBLIC "-//W3C//DTD SVG 20010904//EN"
 "http://www.w3.org/TR/2001/REC-SVG-20010904/DTD/svg10.dtd">
<svg version="1.0" xmlns="http://www.w3.org/2000/svg"
 width="16.000000pt" height="16.000000pt" viewBox="0 0 16.000000 16.000000"
 preserveAspectRatio="xMidYMid meet">
<metadata>
Created by potrace 1.11, written by Peter Selinger 2001-2013
</metadata>
<g transform="translate(0.000000,16.000000) scale(0.001042,-0.001042)"
fill="#000000" stroke="none">
<path d="M7547 13825 c-1 -2 -72 -6 -157 -10 -209 -9 -305 -16 -411 -31 -20
-2 -54 -6 -75 -9 -21 -2 -53 -6 -70 -9 -17 -3 -46 -8 -65 -10 -40 -5 -165 -25
-194 -31 -11 -2 -45 -9 -75 -15 -30 -6 -66 -13 -79 -16 -23 -5 -134 -29 -176
-39 -20 -5 -74 -17 -87 -21 -5 -1 -9 -2 -10 -4 -2 -1 -12 -3 -22 -5 -11 -2
-31 -7 -45 -11 -14 -4 -28 -8 -31 -8 -3 -1 -11 -5 -17 -9 -7 -5 -13 -6 -13 -2
0 3 -15 -1 -34 -9 -19 -8 -37 -12 -40 -9 -2 3 -11 1 -18 -3 -7 -5 -17 -9 -23
-10 -5 -1 -46 -14 -89 -28 -44 -14 -84 -22 -89 -19 -6 3 -7 1 -3 -5 4 -7 1
-13 -8 -13 -17 -2 -33 -5 -41 -9 -3 -1 -9 -3 -14 -4 -5 0 -13 -4 -17 -8 -4 -5
-13 -8 -20 -8 -7 0 -25 -5 -41 -12 -15 -6 -30 -12 -33 -13 -3 -1 -18 -7 -33
-13 -16 -7 -33 -10 -38 -6 -5 3 -9 1 -9 -4 0 -10 -112 -55 -136 -55 -8 0 -14
-4 -14 -8 0 -11 -80 -40 -92 -33 -7 4 -8 2 -4 -4 7 -11 -7 -16 -41 -15 -7 1
-10 -3 -7 -8 5 -8 -9 -13 -28 -10 -5 0 -8 -3 -8 -7 0 -13 -79 -44 -92 -36 -7
4 -9 3 -5 -1 10 -11 -142 -87 -157 -78 -6 3 -8 2 -3 -2 7 -9 -107 -77 -130
-78 -7 0 -13 -3 -13 -7 0 -11 -71 -41 -82 -34 -7 4 -8 2 -4 -4 8 -14 -30 -36
-46 -26 -6 4 -8 3 -5 -3 7 -11 -9 -22 -26 -19 -5 0 -13 -7 -18 -17 -6 -9 -14
-15 -18 -12 -5 2 -15 -2 -22 -11 -7 -8 -26 -22 -43 -31 -17 -9 -84 -51 -148
-94 -65 -43 -118 -76 -118 -73 0 2 -9 -4 -20 -14 -12 -11 -46 -37 -78 -58 -31
-21 -66 -47 -76 -56 -15 -13 -23 -15 -33 -6 -10 8 -12 8 -8 -4 7 -18 -110
-113 -126 -102 -7 4 -9 3 -6 -3 9 -14 -19 -37 -32 -28 -7 4 -8 -1 -4 -11 5
-14 3 -16 -12 -10 -11 4 -16 4 -13 0 7 -6 -20 -39 -31 -39 -3 0 -17 -12 -29
-27 -13 -15 -28 -28 -33 -28 -5 0 -24 -16 -43 -36 -19 -20 -39 -33 -45 -29 -6
3 -10 2 -9 -3 4 -13 -51 -64 -62 -57 -5 3 -12 0 -16 -6 -4 -8 -3 -9 4 -5 7 4
12 2 12 -3 0 -6 -3 -11 -8 -11 -4 0 -34 -26 -67 -57 -32 -32 -63 -57 -67 -56
-4 2 -7 0 -6 -5 2 -4 -12 -22 -29 -39 -22 -22 -38 -31 -50 -27 -13 4 -14 3 -5
-3 10 -7 -11 -34 -81 -106 -51 -54 -92 -97 -90 -97 1 0 -5 -9 -14 -20 -10 -11
-23 -20 -31 -20 -7 0 -11 -4 -8 -9 8 -12 -29 -43 -39 -34 -4 5 -5 2 0 -5 5 -9
-4 -25 -26 -46 -19 -18 -39 -41 -46 -52 -6 -10 -16 -18 -23 -16 -6 1 -9 -2 -5
-7 3 -6 -9 -26 -27 -44 -18 -19 -39 -43 -46 -53 -7 -11 -10 -13 -6 -5 5 9 3
12 -5 7 -6 -4 -9 -11 -6 -16 3 -5 -2 -18 -12 -28 -10 -10 -27 -30 -38 -46 -47
-66 -78 -101 -87 -98 -5 1 -7 -2 -3 -8 7 -12 -60 -102 -69 -92 -4 3 -4 -1 0
-11 4 -11 1 -17 -8 -17 -8 0 -15 -6 -15 -13 0 -21 -55 -97 -66 -90 -6 3 -7 1
-3 -5 4 -6 -1 -20 -11 -30 -10 -10 -19 -25 -21 -33 -2 -8 -8 -15 -13 -17 -5
-2 -9 -10 -9 -18 0 -9 -5 -12 -12 -8 -7 4 -8 3 -4 -4 7 -11 2 -20 -32 -57 -7
-8 -13 -18 -14 -22 -2 -19 -11 -33 -18 -28 -4 3 -7 -3 -6 -13 0 -9 -4 -16 -11
-15 -8 2 -10 -4 -6 -14 5 -12 3 -14 -7 -8 -9 6 -11 4 -5 -5 4 -7 4 -15 -1 -19
-12 -8 -27 -33 -64 -108 -17 -35 -35 -63 -41 -63 -6 0 -8 -4 -5 -9 3 -5 -3
-20 -15 -34 -11 -15 -21 -30 -22 -34 -1 -4 -6 -7 -10 -5 -5 1 -6 -2 -3 -7 9
-14 -5 -42 -17 -34 -6 3 -7 1 -3 -5 9 -15 -22 -75 -34 -67 -6 3 -7 -1 -4 -9 5
-13 -19 -69 -36 -86 -3 -3 -5 -9 -6 -15 0 -10 -10 -32 -80 -180 -21 -44 -38
-83 -40 -87 -1 -5 -3 -10 -4 -13 -1 -3 -3 -8 -4 -12 -1 -5 -10 -25 -19 -47 -9
-21 -17 -42 -17 -47 0 -5 -4 -9 -10 -9 -5 0 -7 -6 -4 -14 3 -7 -1 -20 -9 -27
-7 -8 -12 -20 -9 -27 2 -6 -5 -12 -15 -12 -13 0 -14 -3 -5 -8 10 -7 10 -15 -1
-40 -7 -18 -16 -30 -19 -27 -3 3 -3 -6 0 -21 4 -20 2 -25 -8 -19 -9 5 -11 4
-6 -4 4 -6 3 -17 -2 -24 -5 -7 -19 -45 -31 -86 -11 -41 -24 -77 -28 -80 -4 -3
-8 -15 -7 -26 0 -11 -4 -29 -10 -40 -6 -11 -11 -22 -11 -25 -6 -37 -30 -108
-36 -104 -4 2 -5 -6 -1 -18 4 -16 2 -19 -9 -13 -11 6 -11 5 -3 -4 9 -10 7 -28
-6 -72 -10 -32 -16 -59 -14 -59 3 0 0 -8 -5 -18 -6 -11 -12 -30 -15 -43 -3
-13 -9 -41 -15 -61 -5 -20 -6 -39 -3 -42 3 -4 1 -6 -4 -6 -5 0 -10 -14 -10
-31 -1 -17 -8 -35 -15 -40 -11 -7 -11 -9 -1 -9 7 0 10 -5 6 -11 -4 -7 -9 -30
-12 -53 -2 -23 -7 -43 -11 -46 -3 -3 -6 -14 -6 -25 -1 -45 -29 -181 -39 -187
-8 -6 -8 -8 1 -8 6 0 10 -8 8 -17 -2 -10 -7 -35 -10 -56 -4 -25 -10 -35 -18
-30 -9 5 -9 3 -1 -8 12 -15 15 -49 5 -49 -3 0 -7 -24 -8 -52 -1 -29 -4 -73 -6
-98 -6 -51 -18 -200 -20 -245 -1 -16 -6 -33 -12 -37 -6 -5 -5 -8 3 -8 7 0 10
-5 6 -11 -3 -6 -7 -102 -8 -213 -1 -111 -6 -208 -11 -215 -5 -9 -4 -12 2 -8 5
4 10 -29 11 -83 1 -49 3 -95 4 -102 2 -7 -4 -12 -12 -10 -13 2 -13 0 1 -10 12
-10 15 -31 15 -95 -1 -44 2 -79 5 -77 4 2 6 -13 5 -34 -2 -20 0 -41 3 -46 4
-10 7 -30 15 -133 2 -28 7 -56 10 -62 4 -6 1 -11 -6 -11 -8 0 -9 -3 -3 -8 6
-4 11 -11 12 -17 1 -5 4 -30 8 -55 4 -24 9 -49 12 -54 4 -5 0 -6 -8 -1 -11 7
-12 6 -2 -6 6 -8 14 -34 17 -59 2 -25 5 -45 6 -45 2 0 13 -78 13 -100 1 -11 4
-22 8 -25 4 -3 9 -23 12 -45 9 -60 26 -135 33 -147 5 -7 2 -8 -7 -3 -12 7 -12
6 -1 -7 11 -13 28 -78 49 -178 2 -14 7 -32 10 -40 7 -18 9 -27 16 -60 3 -14
13 -47 22 -74 9 -27 15 -57 12 -67 -3 -10 0 -17 5 -16 10 2 13 -4 21 -45 2
-10 6 -21 10 -24 4 -4 7 -18 7 -30 0 -13 5 -26 10 -29 6 -3 10 -16 10 -29 0
-12 3 -26 7 -29 4 -4 17 -37 29 -74 17 -50 20 -70 11 -75 -8 -5 -7 -8 4 -8 10
0 23 -18 33 -47 20 -55 35 -91 47 -115 5 -10 9 -22 9 -28 0 -6 10 -32 21 -58
12 -26 33 -72 46 -102 14 -30 31 -68 39 -84 8 -16 14 -35 14 -43 0 -7 5 -13
10 -13 6 0 10 -4 10 -10 0 -5 18 -46 40 -91 33 -67 38 -85 28 -98 -10 -13 -10
-14 2 -4 11 11 24 -6 73 -95 32 -59 59 -111 60 -117 1 -5 10 -18 20 -29 9 -11
17 -26 17 -33 0 -7 5 -13 10 -13 6 0 9 -3 8 -7 -1 -5 10 -27 25 -51 15 -23 25
-48 21 -54 -4 -6 -3 -8 3 -5 6 4 21 -9 32 -29 18 -30 19 -39 9 -53 -11 -14
-11 -14 3 -3 15 11 20 8 39 -22 12 -20 18 -41 14 -47 -4 -8 -3 -9 4 -5 6 4 19
-6 29 -21 10 -15 44 -65 76 -111 51 -74 66 -115 35 -96 -7 4 -8 2 -4 -5 6 -9
11 -9 21 -1 9 8 19 2 39 -25 15 -19 25 -35 22 -35 -3 0 5 -11 17 -23 12 -13
33 -39 47 -57 14 -19 31 -39 37 -46 7 -7 13 -17 13 -22 0 -6 7 -13 16 -16 8
-3 12 -10 9 -16 -3 -5 -1 -10 5 -10 6 0 8 -5 4 -12 -4 -6 -3 -8 3 -5 11 7 49
-42 45 -56 -1 -5 2 -6 7 -3 5 4 13 0 18 -8 4 -8 23 -31 42 -51 27 -30 31 -39
20 -47 -10 -7 -8 -8 8 -3 16 4 23 1 28 -14 3 -10 12 -22 20 -25 8 -3 15 -13
15 -21 0 -10 5 -13 12 -9 8 5 9 2 5 -10 -4 -9 -3 -14 2 -11 10 6 88 -72 108
-108 7 -12 12 -18 13 -12 0 5 29 -22 65 -59 35 -38 62 -73 58 -79 -3 -6 -1 -7
4 -4 6 4 23 -5 39 -20 112 -101 123 -114 118 -131 -5 -14 -4 -14 5 -2 8 12 14
11 35 -9 14 -13 23 -28 20 -33 -3 -5 -1 -7 4 -6 15 5 199 -150 194 -164 -1 -4
1 -7 5 -6 15 4 63 -34 56 -45 -3 -5 -1 -7 4 -4 9 6 36 -12 103 -66 8 -7 31
-23 50 -37 19 -13 37 -27 40 -30 3 -3 28 -21 55 -40 28 -19 52 -38 53 -42 2
-4 8 -8 13 -8 15 0 129 -81 125 -89 -3 -4 3 -7 13 -8 21 -2 147 -82 144 -92
-1 -4 7 -7 17 -8 23 -2 92 -47 84 -55 -3 -3 3 -5 13 -5 10 1 17 -4 15 -11 -1
-8 2 -11 7 -7 11 6 86 -28 96 -45 4 -6 10 -8 14 -5 5 2 20 -6 33 -18 14 -13
30 -21 36 -19 7 2 12 -1 12 -6 0 -5 11 -13 25 -16 16 -4 23 -11 19 -18 -4 -6
-3 -8 4 -4 12 7 62 -13 62 -26 0 -4 3 -7 8 -7 27 5 44 -2 38 -17 -3 -9 -2 -12
5 -8 6 3 28 -2 50 -11 33 -16 37 -20 26 -34 -10 -14 -10 -14 4 -3 13 10 25 8
67 -9 29 -12 50 -25 47 -29 -2 -4 3 -7 13 -7 9 0 32 -6 50 -13 26 -10 31 -15
20 -22 -10 -8 -9 -9 5 -4 21 7 49 -3 41 -15 -3 -5 2 -6 10 -3 8 3 34 -4 59
-15 25 -12 51 -21 57 -21 6 0 8 -5 4 -12 -4 -7 -3 -8 4 -4 7 4 33 -2 58 -13
26 -12 53 -21 60 -21 8 0 14 -4 14 -10 0 -5 7 -10 15 -10 8 0 33 -6 55 -12 33
-11 39 -16 34 -33 -6 -20 -6 -20 11 0 11 14 18 16 21 7 3 -6 10 -10 15 -6 5 3
15 2 22 -3 6 -4 18 -8 25 -9 8 -2 20 -11 28 -21 13 -17 14 -17 7 2 -6 16 -4
18 8 8 8 -6 67 -27 132 -45 64 -19 115 -37 112 -39 -2 -3 6 -5 18 -6 59 -1 60
-2 46 -20 -13 -16 -12 -17 3 -5 9 8 26 11 37 7 11 -3 30 -8 43 -11 13 -3 30
-7 38 -9 8 -2 21 -4 28 -4 7 -1 11 -4 9 -8 -3 -5 9 -9 26 -10 29 -1 72 -9 72
-13 0 -1 9 -3 20 -4 73 -10 164 -30 159 -37 -2 -4 0 -11 6 -14 6 -4 9 -3 8 2
-3 7 7 15 15 12 16 -5 66 -13 142 -24 28 -3 61 -8 75 -11 14 -2 45 -7 70 -11
25 -3 48 -11 52 -17 6 -8 8 -7 8 1 0 7 9 10 23 7 12 -3 51 -8 87 -10 36 -3 71
-11 79 -17 12 -10 13 -9 6 2 -5 9 -4 12 2 8 6 -4 48 -10 94 -13 46 -3 100 -7
119 -9 19 -1 37 -4 40 -5 3 -1 10 -1 15 0 9 2 73 1 190 -3 22 -1 43 -6 47 -12
5 -7 8 -7 8 0 0 6 64 10 171 10 94 0 173 3 176 8 2 4 12 3 22 -3 10 -5 21 -7
24 -4 3 3 34 8 69 10 34 3 69 7 76 9 6 2 12 -1 12 -7 0 -9 3 -9 12 0 16 16 31
15 22 0 -6 -10 -4 -10 7 -2 18 15 80 24 72 11 -4 -6 -1 -7 8 -1 16 9 26 12 78
15 20 2 43 -1 50 -6 10 -5 12 -4 7 3 -5 8 2 12 21 13 15 0 37 2 48 4 11 2 36
6 55 8 20 2 41 6 47 10 6 4 15 2 19 -4 4 -8 8 -8 13 0 4 6 29 13 56 16 28 2
70 9 95 15 25 5 63 12 85 16 22 3 66 12 99 20 32 8 61 13 64 10 3 -3 10 -2 16
3 12 9 136 37 149 33 4 -1 7 2 7 6 0 5 6 9 13 9 36 3 76 12 107 25 26 11 39
12 49 4 9 -7 12 -7 9 0 -4 5 6 15 23 21 20 8 29 8 29 1 0 -6 9 -3 21 8 12 10
22 17 23 15 0 -2 20 2 44 8 23 7 48 9 54 5 6 -4 8 -3 5 3 -8 13 18 24 38 17 8
-4 15 -1 15 6 0 6 6 10 12 8 7 -3 19 1 26 9 8 7 18 11 23 8 5 -4 9 -1 9 5 0 6
4 9 10 5 5 -3 17 -1 27 4 47 25 133 52 144 45 7 -4 9 -3 6 3 -6 9 73 42 82 35
2 -2 7 0 10 5 8 12 88 46 106 46 8 0 15 4 15 9 0 4 4 8 10 8 5 0 44 16 86 35
42 19 79 33 84 30 4 -3 10 2 14 10 3 8 12 15 20 15 8 0 31 9 51 21 30 18 38
19 53 8 15 -12 16 -12 4 2 -10 14 -10 18 4 23 9 3 21 3 26 -1 6 -3 8 -2 5 4
-3 5 10 17 29 27 36 17 60 14 48 -6 -5 -7 -2 -8 5 -3 9 5 10 10 2 18 -8 8 1
17 30 34 23 13 45 20 50 17 5 -3 8 -1 7 4 -2 6 0 11 4 11 5 1 42 21 84 46 41
25 78 45 81 45 4 0 21 11 39 25 18 14 35 25 38 25 3 0 54 31 115 69 60 38 112
67 115 64 3 -4 6 -2 6 4 0 17 78 66 91 57 7 -4 10 -3 6 3 -5 8 25 43 38 43 4
0 78 54 117 85 9 7 19 11 22 8 3 -4 6 -2 6 4 0 6 31 34 70 62 38 29 76 59 85
67 8 8 20 12 26 8 7 -4 9 -3 6 3 -6 10 72 80 85 75 4 -1 8 5 8 13 0 18 11 19
30 3 12 -11 12 -10 2 3 -11 14 -8 21 19 43 17 14 35 24 40 20 5 -3 8 -1 7 5
-5 19 105 111 115 98 6 -8 7 -6 4 5 -7 20 17 43 34 32 8 -4 9 -3 5 5 -10 16
13 43 31 37 8 -3 12 -2 9 3 -3 5 3 19 13 32 17 21 21 22 37 9 17 -13 18 -13 7
1 -11 13 2 31 83 115 113 118 164 173 191 208 14 18 27 24 39 20 15 -4 16 -4
5 4 -17 12 -4 35 16 28 8 -4 11 -1 8 5 -6 9 27 55 97 134 9 11 49 61 88 110
39 50 75 89 81 87 6 -1 8 2 4 8 -8 13 30 62 40 52 5 -4 5 -1 1 6 -4 6 -1 18 6
26 7 7 19 22 26 32 101 150 141 202 147 196 5 -4 5 -1 1 6 -8 13 11 45 23 38
3 -2 7 7 7 20 1 13 8 30 15 38 27 29 35 41 42 59 4 11 12 15 18 11 8 -4 9 -3
5 5 -4 6 0 23 9 37 9 15 31 51 48 83 16 31 33 58 36 61 3 3 17 26 30 52 13 26
28 45 34 41 5 -3 7 -1 4 4 -4 6 25 74 63 152 39 77 70 145 70 151 0 6 5 8 12
4 7 -4 8 -3 4 4 -4 6 0 22 8 34 8 13 15 25 14 28 -1 3 13 36 30 73 18 38 32
73 32 78 0 5 8 9 18 9 14 0 14 2 3 9 -12 8 -12 13 2 35 9 14 17 32 17 40 0 8
8 20 18 25 11 7 13 10 3 11 -10 0 -10 4 -3 13 5 6 18 36 27 64 10 29 21 51 25
48 5 -3 6 4 3 15 -3 11 -1 20 4 20 5 0 10 6 10 14 0 26 35 126 42 121 5 -2 6
7 3 20 -2 14 0 25 7 25 5 0 8 7 5 15 -4 8 -2 15 3 15 5 0 10 6 11 13 4 36 25
116 31 113 3 -2 7 10 8 26 1 17 10 37 20 45 10 8 12 12 5 8 -15 -8 -12 16 11
85 8 25 18 64 22 88 4 23 11 42 16 42 6 0 8 4 4 9 -10 17 16 102 29 94 6 -4 5
1 -3 10 -9 12 -10 17 -2 17 7 0 10 4 7 8 -3 4 -1 26 5 48 5 21 12 57 15 79 3
22 10 45 15 51 5 6 6 14 3 17 -12 11 6 58 19 50 9 -5 9 -3 1 8 -12 15 -7 102
5 94 4 -2 5 9 3 26 -2 16 0 29 4 29 5 0 9 19 10 43 0 23 3 62 7 87 4 25 9 65
11 90 2 25 7 74 11 110 4 36 9 83 10 105 2 22 4 40 5 40 1 0 2 23 3 50 1 28 6
56 11 64 7 10 6 12 -3 6 -10 -6 -11 -3 -2 14 8 14 8 21 1 21 -7 0 -8 7 -3 18
5 9 8 40 7 69 -1 33 3 50 9 46 6 -4 7 -1 1 8 -13 20 -13 73 0 81 8 6 8 8 0 8
-6 0 -10 12 -9 28 1 15 7 26 14 24 7 -1 10 2 6 8 -3 6 -10 8 -15 5 -10 -6 -7
35 3 52 3 5 3 13 0 17 -4 4 -8 53 -10 109 -1 56 -5 115 -8 130 -2 15 -1 25 4
22 10 -5 9 13 0 30 -3 6 -7 37 -8 70 -2 33 -5 63 -7 67 -3 5 1 8 8 8 9 0 9 3
2 8 -6 4 -11 14 -12 22 0 15 -8 94 -17 174 -2 23 1 46 8 55 9 11 9 13 0 8 -18
-11 -26 12 -11 30 9 12 9 15 1 9 -9 -5 -13 1 -14 21 -1 15 -1 31 0 35 0 4 -3
18 -8 31 -7 17 -6 29 2 37 9 10 9 11 0 6 -9 -5 -13 1 -14 18 -1 14 -2 29 -3
34 -4 15 -20 118 -21 132 0 8 -3 20 -7 26 -4 6 -8 31 -10 57 -2 26 -6 47 -9
47 -4 0 -9 14 -11 30 -3 17 0 30 4 30 5 0 2 7 -6 16 -14 13 -20 46 -19 92 1 6
-2 12 -6 12 -4 0 -8 6 -9 13 0 6 -3 21 -6 32 -28 99 -34 140 -24 152 8 10 7
12 -5 8 -11 -5 -18 5 -27 42 -7 26 -13 58 -13 71 -1 12 -6 22 -11 22 -4 0 -6
9 -3 20 3 11 1 18 -3 15 -11 -7 -23 51 -14 66 4 7 3 9 -3 6 -5 -3 -24 40 -43
96 -19 56 -35 104 -36 107 -10 27 -16 51 -14 56 1 4 -2 10 -7 13 -5 3 -20 35
-33 71 -13 36 -31 83 -40 105 -31 71 -45 110 -42 118 1 4 -2 7 -7 7 -5 0 -15
17 -22 38 -7 20 -20 52 -31 70 -10 18 -18 39 -18 47 0 8 -4 15 -10 15 -5 0
-10 4 -10 10 0 5 -18 46 -40 91 -33 67 -38 85 -28 98 10 13 10 14 -2 4 -11
-10 -28 15 -98 140 -46 84 -89 158 -95 166 -9 11 -9 13 0 8 6 -4 15 -3 18 3 4
6 3 10 -2 9 -20 -3 -30 3 -46 31 -10 17 -15 35 -12 40 4 6 2 9 -4 8 -6 -2 -21
15 -34 37 -12 22 -25 42 -30 43 -4 2 -5 8 -1 13 3 5 1 9 -5 9 -5 0 -16 11 -23
24 -17 32 -104 161 -141 208 -26 35 -29 67 -5 52 7 -4 8 -2 4 5 -6 9 -11 9
-21 1 -9 -8 -19 -2 -39 25 -15 19 -24 40 -20 47 4 6 3 8 -3 5 -5 -3 -16 3 -24
14 -14 20 -30 40 -70 87 -10 12 -19 26 -19 31 0 5 -7 12 -16 15 -8 3 -12 10
-9 16 3 5 1 10 -5 10 -6 0 -8 5 -4 12 4 6 3 8 -3 5 -11 -7 -49 42 -45 56 1 5
-2 6 -7 3 -5 -4 -13 0 -18 8 -4 8 -23 30 -41 50 -18 20 -30 41 -27 46 3 5 -1
7 -9 4 -9 -3 -17 2 -20 14 -4 11 -13 23 -21 26 -8 3 -15 13 -15 21 0 10 -5 13
-12 9 -8 -5 -9 -2 -5 10 4 9 3 14 -2 11 -10 -6 -88 72 -108 108 -7 12 -12 18
-13 12 0 -5 -29 22 -65 59 -35 38 -62 73 -58 79 3 6 1 7 -5 4 -11 -8 -128 99
-125 114 2 5 0 8 -5 8 -19 -3 -33 2 -27 11 3 6 0 10 -8 10 -19 0 -59 44 -50
55 5 4 3 5 -3 2 -6 -3 -27 9 -47 27 -20 18 -53 46 -72 61 -31 23 -34 29 -23
43 12 15 11 16 -4 4 -15 -12 -22 -9 -53 20 -20 18 -43 37 -51 41 -8 5 -11 13
-8 19 4 6 3 8 -3 5 -12 -8 -79 40 -76 54 2 5 0 8 -5 7 -14 -4 -53 23 -47 33 4
5 3 9 -2 8 -18 -3 -30 2 -49 19 -10 9 -51 39 -91 66 -40 27 -70 54 -66 59 3 6
1 7 -5 3 -12 -7 -84 38 -75 48 4 3 -1 6 -10 6 -21 0 -127 69 -127 82 0 5 -4 7
-9 3 -9 -5 -99 49 -112 68 -3 5 -10 9 -15 9 -5 0 -8 4 -7 9 2 5 -1 8 -5 6 -16
-4 -111 46 -105 56 3 6 2 8 -3 4 -5 -3 -41 12 -79 34 -39 21 -87 46 -107 55
-21 9 -35 21 -31 27 3 6 1 7 -5 3 -13 -8 -53 11 -65 31 -5 7 -12 11 -17 8 -12
-7 -111 41 -102 50 4 5 2 5 -5 1 -13 -7 -63 13 -63 26 0 4 -3 7 -7 7 -20 -3
-34 2 -28 11 3 5 0 7 -9 4 -20 -8 -58 14 -49 29 5 9 3 9 -8 0 -9 -7 -20 -9
-25 -4 -5 4 -30 16 -56 25 -27 10 -48 21 -48 25 0 4 -10 7 -22 8 -11 1 -24 6
-27 10 -3 4 -13 9 -21 10 -22 3 -104 33 -110 41 -3 4 -9 7 -15 7 -33 2 -154
48 -148 58 3 6 1 7 -6 3 -6 -4 -40 2 -75 14 -34 11 -71 23 -82 25 -10 3 -50
14 -89 25 -38 12 -77 23 -85 25 -8 2 -42 11 -75 20 -74 20 -62 17 -225 53 -74
17 -151 33 -170 36 -53 9 -93 16 -110 21 -8 2 -37 7 -65 10 -27 3 -72 10 -100
15 -44 9 -84 14 -190 25 -16 2 -64 7 -105 10 -41 4 -91 8 -110 10 -99 11 -604
27 -613 20z"/>
<path d="M4447 12939 c7 -7 15 -10 18 -7 3 3 -2 9 -12 12 -14 6 -15 5 -6 -5z"/>
<path d="M11915 12171 c-3 -5 -2 -12 3 -15 5 -3 9 1 9 9 0 17 -3 19 -12 6z"/>
<path d="M3187 11919 c7 -7 15 -10 18 -7 3 3 -2 9 -12 12 -14 6 -15 5 -6 -5z"/>
<path d="M12186 11918 c3 -5 10 -6 15 -3 13 9 11 12 -6 12 -8 0 -12 -4 -9 -9z"/>
<path d="M12507 11519 c7 -7 15 -10 18 -7 3 3 -2 9 -12 12 -14 6 -15 5 -6 -5z"/>
<path d="M2555 11209 c-4 -6 -5 -12 -2 -15 2 -3 7 2 10 11 7 17 1 20 -8 4z"/>
<path d="M13300 10405 c0 -2 6 -8 13 -14 10 -8 14 -7 14 2 0 8 -6 14 -14 14
-7 0 -13 -1 -13 -2z"/>
<path d="M13226 10358 c3 -5 10 -6 15 -3 13 9 11 12 -6 12 -8 0 -12 -4 -9 -9z"/>
<path d="M13399 10273 c-13 -16 -12 -17 4 -4 16 13 21 21 13 21 -2 0 -10 -8
-17 -17z"/>
<path d="M13476 10113 c-6 -14 -5 -15 5 -6 7 7 10 15 7 18 -3 3 -9 -2 -12 -12z"/>
<path d="M1749 9683 c-13 -16 -12 -17 4 -4 16 13 21 21 13 21 -2 0 -10 -8 -17
-17z"/>
<path d="M13675 9400 c3 -5 8 -10 11 -10 2 0 4 5 4 10 0 6 -5 10 -11 10 -5 0
-7 -4 -4 -10z"/>
<path d="M1675 9179 c-3 -4 2 -6 10 -5 21 3 28 13 10 13 -9 0 -18 -4 -20 -8z"/>
<path d="M13710 8959 c0 -5 5 -7 10 -4 6 3 10 8 10 11 0 2 -4 4 -10 4 -5 0
-10 -5 -10 -11z"/>
<path d="M13753 8865 c0 -8 4 -12 9 -9 5 3 6 10 3 15 -9 13 -12 11 -12 -6z"/>
<path d="M13947 8519 c7 -7 15 -10 18 -7 3 3 -2 9 -12 12 -14 6 -15 5 -6 -5z"/>
<path d="M13805 8360 c-3 -6 1 -7 9 -4 18 7 21 14 7 14 -6 0 -13 -4 -16 -10z"/>
<path d="M1527 8219 c7 -7 15 -10 18 -7 3 3 -2 9 -12 12 -14 6 -15 5 -6 -5z"/>
<path d="M1466 7958 c3 -5 10 -6 15 -3 13 9 11 12 -6 12 -8 0 -12 -4 -9 -9z"/>
<path d="M13876 7798 c3 -5 10 -6 15 -3 13 9 11 12 -6 12 -8 0 -12 -4 -9 -9z"/>
<path d="M1470 7720 c0 -5 5 -10 11 -10 5 0 7 5 4 10 -3 6 -8 10 -11 10 -2 0
-4 -4 -4 -10z"/>
<path d="M13996 7527 c3 -10 9 -15 12 -12 3 3 0 11 -7 18 -10 9 -11 8 -5 -6z"/>
<path d="M1519 7273 c-13 -16 -12 -17 4 -4 9 7 17 15 17 17 0 8 -8 3 -21 -13z"/>
<path d="M13955 7280 c-3 -5 -1 -10 4 -10 6 0 11 5 11 10 0 6 -2 10 -4 10 -3
0 -8 -4 -11 -10z"/>
<path d="M13826 7158 c3 -5 10 -6 15 -3 13 9 11 12 -6 12 -8 0 -12 -4 -9 -9z"/>
<path d="M13936 7047 c3 -10 9 -15 12 -12 3 3 0 11 -7 18 -10 9 -11 8 -5 -6z"/>
<path d="M1435 7041 c-3 -5 -2 -12 3 -15 5 -3 9 1 9 9 0 17 -3 19 -12 6z"/>
<path d="M13906 6778 c3 -5 10 -6 15 -3 13 9 11 12 -6 12 -8 0 -12 -4 -9 -9z"/>
<path d="M1716 6058 c3 -5 10 -6 15 -3 13 9 11 12 -6 12 -8 0 -12 -4 -9 -9z"/>
<path d="M1750 5880 c0 -5 5 -10 11 -10 5 0 7 5 4 10 -3 6 -8 10 -11 10 -2 0
-4 -4 -4 -10z"/>
<path d="M13505 5680 c-3 -6 1 -7 9 -4 18 7 21 14 7 14 -6 0 -13 -4 -16 -10z"/>
<path d="M13520 5640 c-9 -6 -10 -10 -3 -10 6 0 15 5 18 10 8 12 4 12 -15 0z"/>
<path d="M1795 5571 c-3 -5 -2 -12 3 -15 5 -3 9 1 9 9 0 17 -3 19 -12 6z"/>
<path d="M1915 5169 c-4 -6 -5 -12 -2 -15 2 -3 7 2 10 11 7 17 1 20 -8 4z"/>
<path d="M13290 5141 c0 -6 4 -13 10 -16 6 -3 7 1 4 9 -7 18 -14 21 -14 7z"/>
<path d="M2116 5002 c-3 -5 1 -9 9 -9 8 0 12 4 9 9 -3 4 -7 8 -9 8 -2 0 -6 -4
-9 -8z"/>
<path d="M2350 4536 c0 -2 8 -10 18 -17 15 -13 16 -12 3 4 -13 16 -21 21 -21
13z"/>
<path d="M12906 4402 c-3 -5 1 -9 9 -9 8 0 12 4 9 9 -3 4 -7 8 -9 8 -2 0 -6
-4 -9 -8z"/>
<path d="M2470 4336 c0 -2 8 -10 18 -17 15 -13 16 -12 3 4 -13 16 -21 21 -21
13z"/>
<path d="M2795 3849 c-4 -6 -5 -12 -2 -15 2 -3 7 2 10 11 7 17 1 20 -8 4z"/>
<path d="M12390 3681 c0 -6 4 -13 10 -16 6 -3 7 1 4 9 -7 18 -14 21 -14 7z"/>
<path d="M3480 3120 c-8 -5 -10 -10 -5 -10 6 0 17 5 25 10 8 5 11 10 5 10 -5
0 -17 -5 -25 -10z"/>
<path d="M11795 3089 c-4 -6 -5 -12 -2 -15 2 -3 7 2 10 11 7 17 1 20 -8 4z"/>
<path d="M11745 2960 c-3 -6 1 -7 9 -4 18 7 21 14 7 14 -6 0 -13 -4 -16 -10z"/>
<path d="M3990 2721 c0 -6 4 -13 10 -16 6 -3 7 1 4 9 -7 18 -14 21 -14 7z"/>
<path d="M11194 2560 c0 -13 4 -16 10 -10 7 7 7 13 0 20 -6 6 -10 3 -10 -10z"/>
<path d="M11035 2511 c-3 -5 -2 -12 3 -15 5 -3 9 1 9 9 0 17 -3 19 -12 6z"/>
<path d="M10890 2425 c0 -5 5 -17 10 -25 5 -8 10 -10 10 -5 0 6 -5 17 -10 25
-5 8 -10 11 -10 5z"/>
<path d="M10780 2246 c0 -2 8 -10 18 -17 15 -13 16 -12 3 4 -13 16 -21 21 -21
13z"/>
<path d="M4836 2087 c3 -10 9 -15 12 -12 3 3 0 11 -7 18 -10 9 -11 8 -5 -6z"/>
<path d="M10215 2061 c-3 -5 -2 -12 3 -15 5 -3 9 1 9 9 0 17 -3 19 -12 6z"/>
<path d="M10115 2011 c-3 -5 -2 -12 3 -15 5 -3 9 1 9 9 0 17 -3 19 -12 6z"/>
<path d="M5426 1822 c-3 -5 1 -9 9 -9 8 0 12 4 9 9 -3 4 -7 8 -9 8 -2 0 -6 -4
-9 -8z"/>
<path d="M5786 1798 c3 -5 10 -6 15 -3 13 9 11 12 -6 12 -8 0 -12 -4 -9 -9z"/>
<path d="M9590 1760 c0 -5 5 -10 10 -10 6 0 10 5 10 10 0 6 -4 10 -10 10 -5 0
-10 -4 -10 -10z"/>
<path d="M9393 1715 c0 -8 4 -12 9 -9 5 3 6 10 3 15 -9 13 -12 11 -12 -6z"/>
<path d="M8673 1555 c0 -8 4 -12 9 -9 5 3 6 10 3 15 -9 13 -12 11 -12 -6z"/>
<path d="M8069 1523 c-13 -16 -12 -17 4 -4 16 13 21 21 13 21 -2 0 -10 -8 -17
-17z"/>
</g>
</svg>
